<?xml version="1.0" encoding="UTF-8"?>
<svg id="Layer_1" data-name="Layer 1" xmlns="http://www.w3.org/2000/svg" viewBox="0 0 500 250">
  <defs>
    <style>
      .cls-1 {
        fill: #26222b;
      }
    </style>
  </defs>
  <path class="cls-1" d="M247.23,196.89c-20.55,24.46-51.33,40.03-85.68,40.03-61.7,0-111.92-50.19-111.92-111.92S99.84,13.08,161.54,13.08s111.92,50.21,111.92,111.92c0,48.09,39.12,87.21,87.21,87.21s87.21-39.12,87.21-87.21-39.12-87.21-87.21-87.21c-32.58,0-61.02,17.96-75.99,44.48,0,0-4.08-10.55-5.71-13.95-1.49-3.12-6.55-12.03-6.55-12.03,20.5-26.27,52.44-43.21,88.26-43.21,61.73,0,111.92,50.21,111.92,111.92s-50.19,111.92-111.92,111.92c-30.86,0-58.84-12.55-79.1-32.82-20.26-20.26-32.82-48.24-32.82-79.1,0-48.09-39.12-87.21-87.21-87.21s-87.21,39.12-87.21,87.21,39.12,87.21,87.21,87.21c30.54,0,57.46-15.76,73.04-39.59,0,0,4.77,10.83,6.66,14.31,1.4,2.58,5.98,9.97,5.98,9.97Z"/>
</svg>